<?xml version="1.0" encoding="UTF-8" standalone="no"?>
<!DOCTYPE svg PUBLIC "-//W3C//DTD SVG 1.1//EN" "http://www.w3.org/Graphics/SVG/1.1/DTD/svg11.dtd">
<svg width="100%" height="100%" viewBox="0 0 155 154" version="1.1" xmlns="http://www.w3.org/2000/svg" xmlns:xlink="http://www.w3.org/1999/xlink" xml:space="preserve" xmlns:serif="http://www.serif.com/" style="fill-rule:evenodd;clip-rule:evenodd;stroke-linejoin:round;stroke-miterlimit:2;">
    <g transform="matrix(1,0,0,1,-290,-95)">
        <g id="icon_DSGM">
            <path d="M444.357,119.807C444.357,106.246 433.347,95.236 419.786,95.236L315.359,95.236C301.798,95.236 290.788,106.246 290.788,119.807L290.788,224.234C290.788,237.795 301.798,248.805 315.359,248.805L419.786,248.805C433.347,248.805 444.357,237.795 444.357,224.234L444.357,119.807Z" style="fill:url(#_Radial1);"/>
            <path d="M290.788,154.523C292.089,169.452 356.539,232.722 422.167,175.948C432.2,167.267 439.201,159.501 444.357,152.436L444.357,119.807C444.357,106.246 433.347,95.236 419.786,95.236L315.359,95.236C301.798,95.236 290.788,106.246 290.788,119.807L290.788,154.523Z" style="fill:url(#_Radial2);"/>
            <path d="M297.126,133.842C297.099,135.715 297.296,138.355 298.1,141.792C299.932,149.621 304.491,178.179 307.633,188.359C307.665,188.462 307.702,188.563 307.743,188.662C307.743,188.662 324.625,228.589 327.321,232.665C328.77,234.855 330.472,237.1 333.104,238.126C334.98,238.856 337.367,239.068 340.564,238.007C347.548,235.691 421.982,206.804 427.502,204.855C432.494,203.093 433.889,200.355 433.882,197.716C433.882,197.72 434.542,191.713 434.542,191.713C435,189.523 434.163,186.943 432.288,184.337C432.259,184.297 432.229,184.257 432.198,184.218L408.537,154.343C408.544,153.603 408.487,152.688 408.256,151.797C408.256,151.797 399.14,115.274 399.14,115.274C398,110.657 395.632,107.156 392.268,105.452C389.92,104.262 387.032,103.871 383.552,104.749C377.104,106.375 311.749,121.705 307.019,122.949C302.552,124.125 300.003,125.732 298.665,127.956C297.757,129.466 297.153,131.97 297.126,133.842Z" style="fill:rgb(44,44,44);"/>
            <path d="M431.197,190.44L430.561,198.311L421.655,198.617L431.197,190.44Z" style="fill:rgb(82,82,82);"/>
            <g transform="matrix(1,0,0,1,-0.800262,7.31668)">
                <path d="M311.525,180.088C308.399,169.956 303.875,141.53 302.051,133.738C300.228,125.947 301.549,123.667 308.482,121.843C313.21,120.599 377.898,109.512 384.343,107.886C390.788,106.261 394.524,110.078 396,116.058L405.947,153.509L429.661,186.227C432.052,189.55 432.741,192.539 427.225,194.487C421.709,196.435 347.325,225.305 340.346,227.619C334.701,229.491 332.643,226.318 330.82,223.562C328.158,219.538 311.525,180.088 311.525,180.088Z" style="fill:rgb(82,82,82);"/>
            </g>
            <path d="M312.115,181.273C312.115,181.273 303.236,145.765 301.412,137.974C299.589,130.183 300.91,127.903 307.842,126.079C312.571,124.835 377.898,109.512 384.343,107.886C390.788,106.261 394.524,110.078 396,116.058L405.12,152.593C405.474,153.942 405.23,155.378 405.23,155.378L429.661,186.901C432.052,190.225 431.916,192.257 426.709,194.923C421.133,197.779 346.877,226.455 339.898,228.77C334.253,230.642 332.643,227.085 330.82,224.33C328.158,220.305 312.115,181.273 312.115,181.273Z" style="fill:white;"/>
            <path d="M344.02,184.225L360.062,211.334L406.331,193.765L386.313,170.163L344.02,184.225Z" style="fill:url(#_Radial3);"/>
            <path d="M343.587,182.924C343.194,183.055 342.881,183.357 342.736,183.745C342.591,184.134 342.629,184.567 342.84,184.923L358.882,212.032C359.222,212.606 359.925,212.852 360.549,212.615L406.817,195.047C407.233,194.889 407.547,194.538 407.658,194.107C407.769,193.676 407.664,193.218 407.376,192.878L387.359,169.277C386.997,168.85 386.412,168.686 385.881,168.863L343.587,182.924ZM346.065,184.99L385.867,171.756C385.867,171.756 404.03,193.172 404.03,193.172C404.03,193.172 360.654,209.643 360.654,209.643L346.065,184.99Z" style="fill:rgb(110,190,255);"/>
            <path d="M327.829,132.014L337.421,166.298L379.997,152.698L371.311,120.151L327.829,132.014Z" style="fill:url(#_Radial4);"/>
            <path d="M327.468,130.691C327.116,130.787 326.816,131.02 326.636,131.338C326.456,131.655 326.41,132.031 326.508,132.383L336.101,166.667C336.202,167.025 336.443,167.328 336.771,167.504C337.099,167.681 337.484,167.717 337.839,167.603L380.414,154.004C381.111,153.782 381.51,153.051 381.322,152.345L372.635,119.798C372.541,119.445 372.31,119.145 371.994,118.963C371.678,118.781 371.302,118.733 370.95,118.829L327.468,130.691ZM329.52,132.973L370.342,121.837C370.342,121.837 378.336,151.79 378.336,151.79C378.336,151.79 338.358,164.559 338.358,164.559L329.52,132.973Z" style="fill:rgb(110,190,255);"/>
        </g>
    </g>
    <defs>
        <radialGradient id="_Radial1" cx="0" cy="0" r="1" gradientUnits="userSpaceOnUse" gradientTransform="matrix(118.124,29.8266,-29.8266,118.124,341.529,160.927)"><stop offset="0" style="stop-color:rgb(68,68,68);stop-opacity:1"/><stop offset="0.62" style="stop-color:rgb(44,44,44);stop-opacity:1"/><stop offset="0.8" style="stop-color:rgb(25,25,25);stop-opacity:1"/><stop offset="1" style="stop-color:rgb(20,20,20);stop-opacity:1"/></radialGradient>
        <radialGradient id="_Radial2" cx="0" cy="0" r="1" gradientUnits="userSpaceOnUse" gradientTransform="matrix(88.911,58.4724,-58.4724,88.911,343.8,109.447)"><stop offset="0" style="stop-color:rgb(135,135,135);stop-opacity:1"/><stop offset="0.21" style="stop-color:rgb(129,129,129);stop-opacity:1"/><stop offset="0.48" style="stop-color:rgb(115,115,115);stop-opacity:1"/><stop offset="0.74" style="stop-color:rgb(75,75,75);stop-opacity:1"/><stop offset="1" style="stop-color:rgb(62,62,62);stop-opacity:1"/></radialGradient>
        <radialGradient id="_Radial3" cx="0" cy="0" r="1" gradientUnits="userSpaceOnUse" gradientTransform="matrix(-19.6703,34.2052,-34.2052,-19.6703,383.229,173.737)"><stop offset="0" style="stop-color:rgb(102,187,255);stop-opacity:1"/><stop offset="0.38" style="stop-color:rgb(99,186,255);stop-opacity:1"/><stop offset="0.62" style="stop-color:rgb(70,172,255);stop-opacity:1"/><stop offset="1" style="stop-color:rgb(64,169,255);stop-opacity:1"/></radialGradient>
        <radialGradient id="_Radial4" cx="0" cy="0" r="1" gradientUnits="userSpaceOnUse" gradientTransform="matrix(38.4776,18.5714,-24.7699,28.6967,336.122,134.467)"><stop offset="0" style="stop-color:rgb(152,209,255);stop-opacity:1"/><stop offset="1" style="stop-color:rgb(110,190,255);stop-opacity:1"/></radialGradient>
    </defs>
</svg>
